HIERARCHY
ROOT Hips
{
	OFFSET 0.00 0.00 0.00
	CHANNELS 6 Xposition Yposition Zposition Yrotation Xrotation Zrotation
	JOINT Chest
	{
		OFFSET	0.0000	9.2263	1.5771
		CHANNELS 3 Yrotation Xrotation Zrotation
		JOINT Chest2
		{
			OFFSET	0.0000	16.2540	-0.1656
			CHANNELS 3 Yrotation Xrotation Zrotation
			JOINT Chest3
			{
				OFFSET	0.0000	13.6396	-1.2923
				CHANNELS 3 Yrotation Xrotation Zrotation
				JOINT Neck
				{
					OFFSET	0.0000	13.8774	-4.3542
					CHANNELS 3 Yrotation Xrotation Zrotation
					JOINT Head
					{
						OFFSET	0.0000	4.0266	0.8585
						CHANNELS 3 Yrotation Xrotation Zrotation
						End Site
						{
							OFFSET 0.0000 17.8866 0.1231
						}
					}
				}
				JOINT LeftCollar
				{
					OFFSET	6.1442	10.1870	-3.7932
					CHANNELS 3 Yrotation Xrotation Zrotation
					JOINT LeftShoulder
					{
						OFFSET	12.3191	-1.1130	-1.7935
						CHANNELS 3 Yrotation Xrotation Zrotation
						JOINT LeftElbow
						{
							OFFSET	27.6870	0.0000	0.0000
							CHANNELS 3 Yrotation Xrotation Zrotation
							JOINT LeftHand
							{
								OFFSET	27.8738	0.0000	0.0000
								CHANNELS 3 Yrotation Xrotation Zrotation
								JOINT LeftFinger0
								{
									OFFSET	3.1460	-1.0029	4.0023
									CHANNELS 3 Yrotation Xrotation Zrotation
									JOINT LeftFinger01
									{
										OFFSET	4.3298	-1.0029	2.0796
										CHANNELS 3 Yrotation Xrotation Zrotation
										End Site
										{
											OFFSET 3.7362 -2.0137 1.7261
										}
									}
								}
								JOINT LeftFinger1
								{
									OFFSET	11.5739	0.0000	0.0000
									CHANNELS 3 Yrotation Xrotation Zrotation
									JOINT LeftFinger11
									{
										OFFSET	4.0578	0.0000	0.0000
										CHANNELS 3 Yrotation Xrotation Zrotation
										End Site
										{
											OFFSET 4.0431 0.0000 0.0000
										}
									}
								}
							}
						}
					}
				}
				JOINT RightCollar
				{
					OFFSET	-6.1402	10.1870	-3.7932
					CHANNELS 3 Yrotation Xrotation Zrotation
					JOINT RightShoulder
					{
						OFFSET	-12.3231	-1.1130	-1.7935
						CHANNELS 3 Yrotation Xrotation Zrotation
						JOINT RightElbow
						{
							OFFSET	-27.6870	0.0000	0.0000
							CHANNELS 3 Yrotation Xrotation Zrotation
							JOINT RightHand
							{
								OFFSET	-27.8738	0.0000	0.0000
								CHANNELS 3 Yrotation Xrotation Zrotation
								JOINT RightFinger0
								{
									OFFSET	-3.1758	-1.0029	3.9820
									CHANNELS 3 Yrotation Xrotation Zrotation
									JOINT RightFinger01
									{
										OFFSET	-4.2938	-1.0019	2.1232
										CHANNELS 3 Yrotation Xrotation Zrotation
										End Site
										{
											OFFSET -3.7424 -2.0137 1.7029
										}
									}
								}
								JOINT RightFinger1
								{
									OFFSET	-11.5739	0.0000	0.0000
									CHANNELS 3 Yrotation Xrotation Zrotation
									JOINT RightFinger11
									{
										OFFSET	-4.0578	0.0000	0.0000
										CHANNELS 3 Yrotation Xrotation Zrotation
										End Site
										{
											OFFSET -4.0431 0.0000 0.0000
										}
									}
								}
							}
						}
					}
				}
			}
		}
	}
	JOINT LeftHip
	{
		OFFSET	9.6338	-3.2733	0.0000
		CHANNELS 3 Yrotation Xrotation Zrotation
		JOINT LeftKnee
		{
			OFFSET	0.0000	-46.7251	-1.7300
			CHANNELS 3 Yrotation Xrotation Zrotation
			JOINT LeftAnkle
			{
				OFFSET	0.0126	-34.1943	-0.8477
				CHANNELS 3 Yrotation Xrotation Zrotation
				JOINT LeftToe
				{
					OFFSET	-0.1833	-12.0640	8.2823
					CHANNELS 3 Yrotation Xrotation Zrotation
					End Site
					{
						OFFSET 0.0000 0.1809 10.3623
					}
				}
			}
		}
	}
	JOINT RightHip
	{
		OFFSET	-9.6338	-3.2733	0.0000
		CHANNELS 3 Yrotation Xrotation Zrotation
		JOINT RightKnee
		{
			OFFSET	0.0000	-46.7251	-1.7300
			CHANNELS 3 Yrotation Xrotation Zrotation
			JOINT RightAnkle
			{
				OFFSET	0.0126	-34.1943	-0.8477
				CHANNELS 3 Yrotation Xrotation Zrotation
				JOINT RightToe
				{
					OFFSET	-0.1833	-12.0640	8.2823
					CHANNELS 3 Yrotation Xrotation Zrotation
					End Site
					{
						OFFSET 0.0032 0.1809 10.3623
					}
				}
			}
		}
	}
}
MOTION
Frames: 12
Frame Time: 0.0333333
0.0078 92.2516 -0.0052 -54.0298 1.5272 -6.0304 6.7228 2.5594 2.5839 7.8867 2.6762 -0.0390 7.8741 2.7645 -0.2109 6.9840 12.0308 -2.9707 20.0289 -0.6928 7.9771 4.7651 3.5320 -11.3288 -48.0047 -42.6825 -13.4000 -81.8824 0.0000 0.0000 50.2272 43.2394 93.0130 0.0000 -0.0000 0.0000 0.0000 -0.0000 0.0000 0.0000 -0.0000 0.0000 0.0000 -0.0000 0.0000 2.1878 -14.7234 -5.0194 109.1366 -45.8336 11.5315 29.0807 0.0000 -0.0000 -49.1963 11.3227 -112.8803 0.0000 -0.0000 0.0000 0.0000 -0.0000 0.0000 0.0000 -0.0000 0.0000 0.0000 -0.0000 0.0000 10.8877 -29.3926 16.3465 11.1449 27.7967 5.6461 6.1843 1.3041 -9.3735 -0.0000 -0.0000 -0.0000 -14.0471 -11.5588 -7.1555 9.0579 19.0762 1.9750 -10.7779 -6.8310 14.4912 0.0000 0.0000 0.0000 
0.0164 92.1971 -0.0240 -54.0512 1.5145 -6.0604 6.7218 2.5752 2.6204 7.8839 2.6825 -0.0398 7.8722 2.7702 -0.2140 6.9727 11.9950 -2.9670 19.9687 -0.7026 8.0058 4.7546 3.5683 -11.4410 -47.9621 -42.8042 -13.4122 -81.9697 0.0001 0.0000 50.0269 43.6235 92.7589 0.0000 -0.0000 0.0000 0.0000 -0.0000 0.0000 0.0000 -0.0000 0.0000 0.0000 -0.0000 0.0000 2.2359 -14.7154 -5.0231 109.1075 -45.9744 11.5908 29.1052 -0.0000 -0.0000 -49.1323 11.5881 -112.7226 0.0000 -0.0000 0.0000 0.0000 -0.0000 0.0000 0.0000 -0.0000 0.0000 0.0000 -0.0000 0.0000 10.8874 -29.5458 16.4066 11.0865 28.1113 5.6729 6.2223 1.1508 -9.4188 -0.0000 -0.0000 -0.0000 -14.0381 -11.7358 -7.1363 9.0971 19.4938 2.0700 -10.7707 -7.0745 14.4703 -0.0000 -0.0000 0.0000 
0.0282 92.1525 -0.0461 -54.0480 1.4989 -6.0741 6.7097 2.6022 2.6429 7.8732 2.6964 -0.0442 7.8626 2.7837 -0.2209 6.9549 11.9585 -2.9720 19.8750 -0.7184 8.0095 4.7863 3.6007 -11.5571 -48.0274 -42.8917 -13.3659 -82.0119 0.0000 0.0000 49.8092 44.0099 92.4983 0.0000 -0.0000 0.0000 0.0000 -0.0000 0.0000 0.0000 -0.0000 0.0000 0.0000 -0.0000 0.0000 2.2747 -14.7082 -5.0097 109.0389 -46.0787 11.6660 29.1721 0.0000 0.0000 -49.1376 11.8497 -112.5796 0.0000 -0.0000 0.0000 0.0000 -0.0000 0.0000 0.0000 -0.0000 0.0000 0.0000 -0.0000 0.0000 10.9030 -29.6658 16.4420 11.0117 28.3468 5.6648 6.2485 1.0433 -9.4346 0.0000 -0.0000 -0.0000 -14.0354 -11.8877 -7.1293 9.1321 19.8650 2.1491 -10.7812 -7.2915 14.4550 -0.0000 0.0000 -0.0000 
0.0415 92.1178 -0.0696 -54.0228 1.4894 -6.0868 6.6925 2.6238 2.6625 7.8588 2.7062 -0.0456 7.8493 2.7930 -0.2245 6.9393 11.9281 -2.9750 19.8020 -0.6976 8.0004 4.8364 3.6357 -11.6884 -48.1679 -42.9440 -13.3014 -82.0083 -0.0001 -0.0000 49.6101 44.3797 92.2449 0.0000 -0.0000 0.0000 0.0000 -0.0000 0.0000 0.0000 -0.0000 0.0000 0.0000 -0.0000 0.0000 2.2953 -14.6953 -4.9493 108.9183 -46.1301 11.7789 29.2732 -0.0000 -0.0000 -49.1495 12.1676 -112.4026 0.0000 -0.0000 0.0000 0.0000 -0.0000 0.0000 0.0000 -0.0000 0.0000 0.0000 -0.0000 0.0000 10.9000 -29.7651 16.4668 10.9484 28.5163 5.6592 6.2659 0.9753 -9.4429 0.0000 -0.0001 -0.0000 -14.0257 -12.0067 -7.1146 9.1605 20.1612 2.2049 -10.8318 -7.4516 14.4354 0.0000 0.0000 -0.0000 
0.0564 92.0867 -0.0929 -54.0077 1.4884 -6.0986 6.6786 2.6402 2.6797 7.8476 2.7127 -0.0444 7.8388 2.7991 -0.2251 6.9378 11.8884 -2.9821 19.7993 -0.6481 8.0072 4.9055 3.6754 -11.8416 -48.3131 -42.9841 -13.2534 -82.0189 -0.0002 -0.0000 49.4530 44.6741 92.0548 0.0000 -0.0000 0.0000 0.0000 -0.0000 0.0000 0.0000 -0.0000 0.0000 0.0000 -0.0000 0.0000 2.2930 -14.6793 -4.8474 108.8007 -46.1515 11.9115 29.4009 0.0000 -0.0000 -49.0834 12.5034 -112.2116 0.0000 -0.0000 0.0000 0.0000 -0.0000 0.0000 0.0000 -0.0000 0.0000 0.0000 -0.0000 0.0000 10.8685 -29.8533 16.4918 10.9323 28.6597 5.6833 6.2818 0.9222 -9.4630 -0.0000 -0.0000 0.0000 -14.0105 -12.1228 -7.0979 9.1852 20.4205 2.2550 -10.8758 -7.5858 14.4147 0.0000 -0.0000 -0.0000 
0.0750 92.0559 -0.1171 -54.0329 1.4887 -6.0980 6.6800 2.6603 2.6854 7.8500 2.7238 -0.0464 7.8416 2.8100 -0.2284 6.9397 11.8378 -2.9944 19.8184 -0.6179 8.0098 4.9865 3.7185 -12.0094 -48.4590 -43.0353 -13.1778 -82.0390 0.0001 0.0000 49.2929 44.9085 91.8553 0.0000 -0.0000 0.0000 0.0000 -0.0000 0.0000 0.0000 -0.0000 0.0000 0.0000 -0.0000 0.0000 2.2806 -14.6666 -4.7441 108.7226 -46.2296 12.0459 29.5197 0.0000 -0.0000 -48.9282 12.7605 -112.1180 0.0000 -0.0000 0.0000 0.0000 -0.0000 0.0000 0.0000 -0.0000 0.0000 0.0000 -0.0000 0.0000 10.8468 -29.9284 16.5132 10.9554 28.7946 5.7168 6.2980 0.8711 -9.4865 -0.0000 -0.0000 -0.0000 -13.9916 -12.2583 -7.0931 9.2097 20.6795 2.3043 -10.8658 -7.7306 14.4022 -0.0000 -0.0000 0.0000 
0.0939 92.0263 -0.1422 -54.0816 1.4824 -6.0927 6.6903 2.6830 2.6875 7.8599 2.7383 -0.0500 7.8520 2.8241 -0.2330 6.9362 11.8017 -3.0042 19.8174 -0.6564 7.9773 5.0692 3.7609 -12.1749 -48.5988 -43.0904 -13.0706 -82.0618 0.0001 0.0000 49.0863 45.1726 91.6036 0.0000 -0.0000 0.0000 0.0000 -0.0000 0.0000 0.0000 -0.0000 0.0000 0.0000 -0.0000 0.0000 2.2790 -14.6559 -4.6624 108.6519 -46.4059 12.2000 29.6095 0.0000 0.0000 -48.7454 12.9465 -112.0945 0.0000 -0.0000 0.0000 0.0000 -0.0000 0.0000 0.0000 -0.0000 0.0000 0.0000 -0.0000 0.0000 10.8575 -29.9931 16.5335 10.9681 28.9217 5.7326 6.3132 0.8215 -9.5025 0.0000 -0.0001 0.0000 -13.9746 -12.3893 -7.0924 9.2335 20.9236 2.3485 -10.8207 -7.8809 14.3936 0.0000 -0.0000 -0.0000 
0.1053 91.9991 -0.1662 -54.1171 1.4684 -6.0960 6.6873 2.7010 2.6942 7.8587 2.7491 -0.0524 7.8519 2.8342 -0.2365 6.9414 11.7901 -3.0031 19.8501 -0.7314 7.9492 5.1530 3.7997 -12.3286 -48.6930 -43.1320 -12.9903 -82.1301 0.0000 0.0000 48.8404 45.5072 91.3914 0.0000 -0.0000 0.0000 0.0000 -0.0000 0.0000 0.0000 -0.0000 0.0000 0.0000 -0.0000 0.0000 2.2919 -14.6417 -4.5878 108.5550 -46.5980 12.3789 29.6989 0.0000 0.0000 -48.6210 13.1396 -112.0016 0.0000 -0.0000 0.0000 0.0000 -0.0000 0.0000 0.0000 -0.0000 0.0000 0.0000 -0.0000 0.0000 10.8671 -30.0497 16.5620 10.9619 29.0435 5.7444 6.3278 0.7731 -9.5216 0.0000 -0.0000 0.0000 -13.9651 -12.4878 -7.0830 9.2556 21.1378 2.3887 -10.8015 -8.0193 14.3784 -0.0000 -0.0000 0.0000 
0.1065 91.9725 -0.1887 -54.1387 1.4490 -6.1068 6.6663 2.7124 2.6971 7.8437 2.7544 -0.0564 7.8382 2.8385 -0.2418 6.9622 11.7819 -2.9888 19.9450 -0.7605 7.9880 5.2264 3.8349 -12.4666 -48.7246 -43.1668 -12.9680 -82.2535 0.0000 -0.0000 48.6048 45.8642 91.2611 0.0000 -0.0000 0.0000 0.0000 -0.0000 0.0000 0.0000 -0.0000 0.0000 0.0000 -0.0000 0.0000 2.3023 -14.6253 -4.5050 108.4492 -46.7078 12.5490 29.8167 -0.0000 -0.0000 -48.5772 13.3803 -111.8157 0.0000 -0.0000 0.0000 0.0000 -0.0000 0.0000 0.0000 -0.0000 0.0000 0.0000 -0.0000 0.0000 10.8620 -30.0995 16.6011 10.9539 29.1681 5.7645 6.3434 0.7215 -9.5513 -0.0000 -0.0001 0.0000 -13.9533 -12.5661 -7.0626 9.2784 21.3502 2.4257 -10.8274 -8.1527 14.3556 -0.0000 0.0000 0.0000 
0.1017 91.9452 -0.2120 -54.1644 1.4243 -6.1230 6.6371 2.7245 2.6926 7.8224 2.7599 -0.0647 7.8182 2.8433 -0.2514 6.9908 11.7556 -2.9710 20.0732 -0.7300 8.0701 5.2787 3.8632 -12.5746 -48.6933 -43.2340 -13.0180 -82.4042 -0.0001 -0.0000 48.3941 46.1948 91.1829 0.0000 -0.0000 0.0000 0.0000 -0.0000 0.0000 0.0000 -0.0000 0.0000 0.0000 -0.0000 0.0000 2.3175 -14.6096 -4.4290 108.3603 -46.7381 12.6723 29.9516 0.0000 0.0000 -48.5725 13.6584 -111.5920 0.0000 -0.0000 0.0000 0.0000 -0.0000 0.0000 0.0000 -0.0000 0.0000 0.0000 -0.0000 0.0000 10.8609 -30.1473 16.6500 10.9351 29.3004 5.7826 6.3602 0.6643 -9.5868 -0.0000 -0.0001 0.0000 -13.9352 -12.6412 -7.0341 9.3024 21.5754 2.4615 -10.8450 -8.2935 14.3335 0.0000 -0.0000 -0.0000 
0.0971 91.9183 -0.2391 -54.1845 1.4034 -6.1486 6.6097 2.7388 2.6925 7.8007 2.7665 -0.0754 7.7973 2.8497 -0.2635 7.0129 11.7167 -2.9632 20.1675 -0.7187 8.1272 5.2987 3.8855 -12.6525 -48.6429 -43.3456 -13.0983 -82.5308 -0.0001 0.0000 48.1797 46.5097 91.0950 0.0000 -0.0000 0.0000 0.0000 -0.0000 0.0000 0.0000 -0.0000 0.0000 0.0000 -0.0000 0.0000 2.3533 -14.5940 -4.3748 108.2699 -46.7681 12.7597 30.0722 -0.0000 0.0000 -48.5646 13.9472 -111.3753 0.0000 -0.0000 0.0000 0.0000 -0.0000 0.0000 0.0000 -0.0000 0.0000 0.0000 -0.0000 0.0000 10.8578 -30.2047 16.7066 10.9031 29.4290 5.7971 6.3748 0.6128 -9.6218 0.0000 -0.0001 -0.0000 -13.9203 -12.7164 -6.9976 9.3258 21.7960 2.5054 -10.8424 -8.4305 14.2997 -0.0000 0.0000 -0.0000 
0.0942 91.8957 -0.2723 -54.1829 1.4055 -6.1797 6.5903 2.7441 2.6935 7.7835 2.7652 -0.0889 7.7807 2.8484 -0.2786 7.0223 11.6827 -2.9636 20.1930 -0.7726 8.1518 5.2786 3.9047 -12.7063 -48.6318 -43.4522 -13.1327 -82.5970 -0.0001 -0.0000 47.9684 46.8140 90.9552 0.0000 -0.0000 0.0000 0.0000 -0.0000 0.0000 0.0000 -0.0000 0.0000 0.0000 -0.0000 0.0000 2.3876 -14.5813 -4.3379 108.1341 -46.8481 12.8666 30.1923 -0.0000 -0.0000 -48.5455 14.2115 -111.2202 0.0000 -0.0000 0.0000 0.0000 -0.0000 0.0000 0.0000 -0.0000 0.0000 0.0000 -0.0000 0.0000 10.8482 -30.2803 16.7607 10.8649 29.5244 5.8028 6.3822 0.5867 -9.6459 0.0000 -0.0000 0.0000 -13.9058 -12.7923 -6.9515 9.3449 21.9811 2.5516 -10.8709 -8.5448 14.2667 0.0000 -0.0000 -0.0000 
